<svg width="18" height="18" viewBox="0 0 18 18" fill="none" xmlns="http://www.w3.org/2000/svg">
<mask id="mask0_1152_6370" style="mask-type:alpha" maskUnits="userSpaceOnUse" x="0" y="0" width="18" height="18">
<rect width="18" height="18" fill="#D9D9D9"/>
</mask>
<g mask="url(#mask0_1152_6370)">
<path d="M7.05547 8.00034L12.7525 13.6974C12.9028 13.8476 12.976 14.0245 12.9722 14.2281C12.9683 14.4318 12.8912 14.6088 12.741 14.759C12.5906 14.9093 12.4136 14.9844 12.2101 14.9844C12.0065 14.9844 11.8295 14.9093 11.6791 14.759L5.87753 8.96897C5.74076 8.83221 5.63942 8.67899 5.5735 8.50933C5.50757 8.33967 5.47461 8.17 5.47461 8.00034C5.47461 7.83067 5.50757 7.66101 5.5735 7.49135C5.63942 7.32168 5.74076 7.16847 5.87753 7.0317L11.6791 1.22992C11.8295 1.07967 12.0084 1.00649 12.2159 1.0104C12.4234 1.01431 12.6023 1.09139 12.7525 1.24164C12.9028 1.39189 12.9779 1.56887 12.9779 1.77257C12.9779 1.97614 12.9028 2.15305 12.7525 2.3033L7.05547 8.00034Z" fill="#131313"/>
</g>
</svg>
