<svg width="24" height="24" viewBox="0 0 24 24" fill="none" xmlns="http://www.w3.org/2000/svg">
<path fill-rule="evenodd" clip-rule="evenodd" d="M16.7144 6.64238C16.5649 6.49258 16.362 6.40839 16.1504 6.40839C15.9388 6.40839 15.7359 6.49258 15.5864 6.64238L11.6744 10.5464L7.76239 6.63438C7.61293 6.48458 7.41 6.40039 7.19839 6.40039C6.98678 6.40039 6.78386 6.48458 6.63439 6.63438C6.32239 6.94638 6.32239 7.45038 6.63439 7.76238L10.5464 11.6744L6.63439 15.5864C6.32239 15.8984 6.32239 16.4024 6.63439 16.7144C6.94639 17.0264 7.45039 17.0264 7.76239 16.7144L11.6744 12.8024L15.5864 16.7144C15.8984 17.0264 16.4024 17.0264 16.7144 16.7144C17.0264 16.4024 17.0264 15.8984 16.7144 15.5864L12.8024 11.6744L16.7144 7.76238C17.0184 7.45838 17.0184 6.94638 16.7144 6.64238Z" fill="#131313"/>
</svg>
