<svg width="32" height="32" viewBox="0 0 32 32" fill="none" xmlns="http://www.w3.org/2000/svg">
<mask id="mask0_836_121663" style="mask-type:alpha" maskUnits="userSpaceOnUse" x="0" y="0" width="32" height="32">
<rect width="32" height="32" fill="#FFC21C"/>
</mask>
<g mask="url(#mask0_836_121663)">
<path d="M7.99967 28C7.24745 28 6.61501 27.7436 6.10234 27.2307C5.58945 26.718 5.33301 26.0856 5.33301 25.3333V21.641H9.33301V4H26.6663V25.3333C26.6663 26.0856 26.4099 26.718 25.897 27.2307C25.3843 27.7436 24.7519 28 23.9997 28H7.99967ZM23.9997 26.6667C24.3775 26.6667 24.6941 26.5389 24.9497 26.2833C25.2052 26.0278 25.333 25.7111 25.333 25.3333V5.33333H10.6663V21.641H22.6663V25.3333C22.6663 25.7111 22.7941 26.0278 23.0497 26.2833C23.3052 26.5389 23.6219 26.6667 23.9997 26.6667ZM12.5123 11.1793V9.846H23.487V11.1793H12.5123ZM12.5123 14.8717V13.5383H23.487V14.8717H12.5123ZM7.99967 26.6667H21.333V22.9743H6.66634V25.3333C6.66634 25.7111 6.79412 26.0278 7.04967 26.2833C7.30523 26.5389 7.6219 26.6667 7.99967 26.6667ZM7.99967 26.6667H6.66634H21.333H7.99967Z" fill="#131313"/>
</g>
</svg>
