<svg width="20" height="20" viewBox="0 0 20 20" fill="none" xmlns="http://www.w3.org/2000/svg">
<path d="M4.42345 17.917C4.00789 17.917 3.6529 17.7698 3.35845 17.4755C3.06415 17.1811 2.91699 16.8261 2.91699 16.4105V6.92345C2.91699 6.50789 3.06415 6.15289 3.35845 5.85845C3.6529 5.56415 4.00789 5.41699 4.42345 5.41699H6.25033C6.25033 4.37644 6.61519 3.4913 7.34491 2.76157C8.07463 2.03185 8.95977 1.66699 10.0003 1.66699C11.0409 1.66699 11.926 2.03185 12.6557 2.76157C13.3855 3.4913 13.7503 4.37644 13.7503 5.41699H15.5772C15.9928 5.41699 16.3478 5.56415 16.6422 5.85845C16.9365 6.15289 17.0837 6.50789 17.0837 6.92345V16.4105C17.0837 16.8261 16.9365 17.1811 16.6422 17.4755C16.3478 17.7698 15.9928 17.917 15.5772 17.917H4.42345ZM4.42345 16.667H15.5772C15.6414 16.667 15.7001 16.6403 15.7535 16.5868C15.8069 16.5335 15.8337 16.4747 15.8337 16.4105V6.92345C15.8337 6.85928 15.8069 6.80053 15.7535 6.7472C15.7001 6.69373 15.6414 6.66699 15.5772 6.66699H4.42345C4.35928 6.66699 4.30053 6.69373 4.2472 6.7472C4.19373 6.80053 4.16699 6.85928 4.16699 6.92345V16.4105C4.16699 16.4747 4.19373 16.5335 4.2472 16.5868C4.30053 16.6403 4.35928 16.667 4.42345 16.667ZM10.0003 11.2503C11.0409 11.2503 11.926 10.8855 12.6557 10.1557C13.3855 9.42602 13.7503 8.54088 13.7503 7.50033H12.5003C12.5003 8.19477 12.2573 8.78505 11.7712 9.27116C11.285 9.75727 10.6948 10.0003 10.0003 10.0003C9.30588 10.0003 8.7156 9.75727 8.22949 9.27116C7.74338 8.78505 7.50033 8.19477 7.50033 7.50033H6.25033C6.25033 8.54088 6.61519 9.42602 7.34491 10.1557C8.07463 10.8855 8.95977 11.2503 10.0003 11.2503ZM7.50033 5.41699H12.5003C12.5003 4.72255 12.2573 4.13227 11.7712 3.64616C11.285 3.16005 10.6948 2.91699 10.0003 2.91699C9.30588 2.91699 8.7156 3.16005 8.22949 3.64616C7.74338 4.13227 7.50033 4.72255 7.50033 5.41699Z" fill="#131313"/>
</svg>
