<svg width="32" height="32" viewBox="0 0 32 32" fill="none" xmlns="http://www.w3.org/2000/svg">
<mask id="mask0_836_121675" style="mask-type:alpha" maskUnits="userSpaceOnUse" x="0" y="0" width="32" height="32">
<rect width="32" height="32" fill="#FFC21C"/>
</mask>
<g mask="url(#mask0_836_121675)">
<path d="M10.8333 9.45633L14.3103 4.82833C14.5223 4.54322 14.774 4.33389 15.0653 4.20033C15.3569 4.06678 15.6684 4 16 4C16.3316 4 16.6431 4.06678 16.9347 4.20033C17.226 4.33389 17.4777 4.54322 17.6897 4.82833L21.1667 9.45633L26.5257 11.2793C27.0008 11.4402 27.3666 11.7096 27.623 12.0873C27.8794 12.4653 28.0077 12.8829 28.0077 13.34C28.0077 13.5509 27.9768 13.7603 27.915 13.9683C27.8532 14.1766 27.7517 14.376 27.6103 14.5667L24.0973 19.3307L24.2307 24.4383C24.2529 25.0648 24.0457 25.5928 23.609 26.0223C23.1723 26.4519 22.6642 26.6667 22.0847 26.6667C22.0916 26.6667 21.8898 26.6419 21.4793 26.5923L16 24.977L10.5207 26.5923C10.4096 26.6368 10.3023 26.6602 10.199 26.6627C10.0959 26.6653 10.0013 26.6667 9.91533 26.6667C9.324 26.6667 8.81289 26.4519 8.382 26.0223C7.95133 25.5928 7.74711 25.0648 7.76933 24.4383L7.90267 19.2973L4.39733 14.5667C4.256 14.3742 4.15444 14.173 4.09267 13.963C4.03089 13.7532 4 13.5433 4 13.3333C4 12.8833 4.13178 12.4648 4.39533 12.0777C4.65911 11.6906 5.02733 11.416 5.5 11.254L10.8333 9.45633ZM11.6717 10.6027L5.94867 12.5307C5.69222 12.6162 5.517 12.7914 5.423 13.0563C5.329 13.3214 5.36744 13.5651 5.53833 13.7873L9.26167 18.9077L9.10267 24.454C9.08556 24.7444 9.18811 24.9751 9.41033 25.146C9.63256 25.3171 9.88045 25.3599 10.154 25.2743L16 23.595L21.846 25.3077C22.1196 25.3932 22.3674 25.3504 22.5897 25.1793C22.8119 25.0084 22.9144 24.7778 22.8973 24.4873L22.7383 18.9077L26.4617 13.854C26.6326 13.6318 26.671 13.3881 26.577 13.123C26.483 12.8581 26.3078 12.6829 26.0513 12.5973L20.3283 10.6027L16.641 5.69233C16.4872 5.47011 16.2736 5.359 16 5.359C15.7264 5.359 15.5128 5.47011 15.359 5.69233L11.6717 10.6027Z" fill="#131313"/>
</g>
</svg>
