<svg width="32" height="32" viewBox="0 0 32 32" fill="none" xmlns="http://www.w3.org/2000/svg">
<mask id="mask0_836_121669" style="mask-type:alpha" maskUnits="userSpaceOnUse" x="0" y="0" width="32" height="32">
<rect width="32" height="32" fill="#FFC21C"/>
</mask>
<g mask="url(#mask0_836_121669)">
<path d="M7.48701 28C6.89034 28 6.38212 27.7902 5.96234 27.3707C5.54279 26.9509 5.33301 26.4427 5.33301 25.846V11.4873C5.33301 10.8907 5.54279 10.3824 5.96234 9.96267C6.38212 9.54311 6.89034 9.33333 7.48701 9.33333H10.6663C10.6663 7.84778 11.1839 6.58756 12.219 5.55267C13.2539 4.51756 14.5141 4 15.9997 4C17.4852 4 18.7455 4.51756 19.7803 5.55267C20.8155 6.58756 21.333 7.84778 21.333 9.33333H24.5123C25.109 9.33333 25.6172 9.54311 26.037 9.96267C26.4566 10.3824 26.6663 10.8907 26.6663 11.4873V25.846C26.6663 26.4427 26.4566 26.9509 26.037 27.3707C25.6172 27.7902 25.109 28 24.5123 28H7.48701ZM7.48701 26.6667H24.5123C24.7177 26.6667 24.9058 26.5812 25.0767 26.4103C25.2476 26.2394 25.333 26.0513 25.333 25.846V11.4873C25.333 11.282 25.2476 11.0939 25.0767 10.923C24.9058 10.7521 24.7177 10.6667 24.5123 10.6667H7.48701C7.28167 10.6667 7.09356 10.7521 6.92267 10.923C6.75179 11.0939 6.66634 11.282 6.66634 11.4873V25.846C6.66634 26.0513 6.75179 26.2394 6.92267 26.4103C7.09356 26.5812 7.28167 26.6667 7.48701 26.6667ZM15.9997 17.3333C17.4852 17.3333 18.7455 16.8158 19.7803 15.7807C20.8155 14.7458 21.333 13.4856 21.333 12H19.9997C19.9997 13.1111 19.6108 14.0556 18.833 14.8333C18.0552 15.6111 17.1108 16 15.9997 16C14.8886 16 13.9441 15.6111 13.1663 14.8333C12.3886 14.0556 11.9997 13.1111 11.9997 12H10.6663C10.6663 13.4856 11.1839 14.7458 12.219 15.7807C13.2539 16.8158 14.5141 17.3333 15.9997 17.3333ZM11.9997 9.33333H19.9997C19.9997 8.22222 19.6108 7.27778 18.833 6.5C18.0552 5.72222 17.1108 5.33333 15.9997 5.33333C14.8886 5.33333 13.9441 5.72222 13.1663 6.5C12.3886 7.27778 11.9997 8.22222 11.9997 9.33333Z" fill="#131313"/>
</g>
</svg>
