<svg width="32" height="32" viewBox="0 0 32 32" fill="none" xmlns="http://www.w3.org/2000/svg">
<mask id="mask0_836_120495" style="mask-type:alpha" maskUnits="userSpaceOnUse" x="0" y="0" width="32" height="32">
<rect width="32" height="32" fill="#D9D9D9"/>
</mask>
<g mask="url(#mask0_836_120495)">
<path d="M11.5073 26.6673C9.7929 26.6673 8.33523 26.0669 7.13434 24.866C5.93345 23.6651 5.33301 22.2074 5.33301 20.493C5.33301 19.7681 5.45612 19.0655 5.70234 18.3853C5.94834 17.7049 6.3039 17.0852 6.76901 16.5263L11.451 10.9033L8.67901 5.33398H23.3203L20.5483 10.9033L25.2303 16.5263C25.6955 17.0852 26.051 17.7049 26.297 18.3853C26.5432 19.0655 26.6663 19.7681 26.6663 20.493C26.6663 22.2074 26.0647 23.6651 24.8613 24.866C23.6578 26.0669 22.2013 26.6673 20.492 26.6673H11.5073ZM15.9997 20.6417C15.403 20.6417 14.8949 20.4319 14.4753 20.0123C14.0556 19.5925 13.8457 19.0844 13.8457 18.488C13.8457 17.8913 14.0556 17.3831 14.4753 16.9633C14.8949 16.5438 15.403 16.334 15.9997 16.334C16.5963 16.334 17.1045 16.5438 17.524 16.9633C17.9438 17.3831 18.1537 17.8913 18.1537 18.488C18.1537 19.0844 17.9438 19.5925 17.524 20.0123C17.1045 20.4319 16.5963 20.6417 15.9997 20.6417ZM12.679 10.334H19.3457L21.1663 6.66732H10.833L12.679 10.334ZM11.5073 25.334H20.492C21.8442 25.334 22.9891 24.8609 23.9267 23.9147C24.8642 22.9687 25.333 21.8281 25.333 20.493C25.333 19.9254 25.2386 19.3745 25.0497 18.8403C24.8608 18.3061 24.5826 17.822 24.215 17.388L19.4433 11.6673H12.5893L7.81001 17.38C7.44245 17.8142 7.1599 18.2998 6.96234 18.8367C6.76501 19.3733 6.66634 19.9254 6.66634 20.493C6.66634 21.8281 7.13945 22.9687 8.08567 23.9147C9.03167 24.8609 10.1722 25.334 11.5073 25.334Z" fill="#131313" fill-opacity="0.6"/>
</g>
</svg>
