<svg width="20" height="20" viewBox="0 0 20 20" fill="none" xmlns="http://www.w3.org/2000/svg">
<mask id="mask0_836_119412" style="mask-type:alpha" maskUnits="userSpaceOnUse" x="0" y="0" width="20" height="20">
<rect width="20" height="20" fill="#D9D9D9"/>
</mask>
<g mask="url(#mask0_836_119412)">
<path d="M3.75 15.7377V14.4879H5.25646V8.26982C5.25646 7.14912 5.60236 6.15822 6.29417 5.29711C6.98583 4.436 7.87389 3.88523 8.95833 3.64482V3.12565C8.95833 2.83635 9.05951 2.59037 9.26188 2.38773C9.46424 2.18523 9.70993 2.08398 9.99896 2.08398C10.2881 2.08398 10.5342 2.18523 10.7371 2.38773C10.9401 2.59037 11.0417 2.83635 11.0417 3.12565V3.64482C12.1261 3.88523 13.0142 4.436 13.7058 5.29711C14.3976 6.15822 14.7435 7.14912 14.7435 8.26982V14.4879H16.25V15.7377H3.75ZM9.99854 18.0775C9.58396 18.0775 9.22951 17.93 8.93521 17.635C8.64076 17.34 8.49354 16.9854 8.49354 16.5711H11.5065C11.5065 16.9868 11.3588 17.3418 11.0635 17.6361C10.7683 17.9304 10.4133 18.0775 9.99854 18.0775ZM6.50646 14.4879H13.4935V8.26982C13.4935 7.3051 13.1525 6.48169 12.4704 5.79961C11.7882 5.11739 10.9647 4.77628 10 4.77628C9.03528 4.77628 8.21181 5.11739 7.52958 5.79961C6.8475 6.48169 6.50646 7.3051 6.50646 8.26982V14.4879Z" fill="#131313"/>
</g>
</svg>
