<svg width="32" height="32" viewBox="0 0 32 32" fill="none" xmlns="http://www.w3.org/2000/svg">
<mask id="mask0_836_120488" style="mask-type:alpha" maskUnits="userSpaceOnUse" x="0" y="0" width="32" height="32">
<rect width="32" height="32" fill="#D9D9D9"/>
</mask>
<g mask="url(#mask0_836_120488)">
<path d="M4 9.38467V4H9.38467V5.33333H5.33333V9.38467H4ZM4 28V22.6153H5.33333V26.6667H9.38467V28H4ZM22.6153 28V26.6667H26.6667V22.6153H28V28H22.6153ZM26.6667 9.38467V5.33333H22.6153V4H28V9.38467H26.6667ZM22.5897 22.5897H24.205V24.205H22.5897V22.5897ZM22.5897 19.359H24.205V20.9743H22.5897V19.359ZM20.9743 20.9743H22.5897V22.5897H20.9743V20.9743ZM19.359 22.5897H20.9743V24.205H19.359V22.5897ZM17.7437 20.9743H19.359V22.5897H17.7437V20.9743ZM20.9743 17.7437H22.5897V19.359H20.9743V17.7437ZM19.359 19.359H20.9743V20.9743H19.359V19.359ZM17.7437 17.7437H19.359V19.359H17.7437V17.7437ZM24.205 7.795V14.2563H17.7437V7.795H24.205ZM14.2563 17.7437V24.205H7.795V17.7437H14.2563ZM14.2563 7.795V14.2563H7.795V7.795H14.2563ZM13.077 23.0257V18.923H8.97433V23.0257H13.077ZM13.077 13.077V8.97433H8.97433V13.077H13.077ZM23.0257 13.077V8.97433H18.923V13.077H23.0257Z" fill="#131313" fill-opacity="0.6"/>
</g>
</svg>
