<svg width="14" height="14" viewBox="0 0 14 14" fill="none" xmlns="http://www.w3.org/2000/svg">
<mask id="mask0_836_115398" style="mask-type:alpha" maskUnits="userSpaceOnUse" x="0" y="0" width="14" height="14">
<rect width="14" height="14" transform="matrix(-1 0 0 1 14 0)" fill="#D9D9D9"/>
</mask>
<g mask="url(#mask0_836_115398)">
<path d="M6.9987 12.5415C7.68674 12.5415 8.33137 12.4114 8.93259 12.1511C9.53391 11.8909 10.0582 11.5371 10.5054 11.0899C10.9526 10.6427 11.3064 10.1184 11.5666 9.51708C11.8269 8.91586 11.957 8.27123 11.957 7.58319C11.957 7.45903 11.9151 7.3551 11.8313 7.27139C11.7476 7.18759 11.6437 7.14569 11.5195 7.14569C11.3954 7.14569 11.2914 7.18759 11.2077 7.27139C11.1239 7.3551 11.082 7.45903 11.082 7.58319C11.082 8.72069 10.6859 9.68562 9.89349 10.478C9.10113 11.2703 8.1362 11.6665 6.9987 11.6665C5.8612 11.6665 4.89627 11.2703 4.1039 10.478C3.31154 9.68562 2.91536 8.72069 2.91536 7.58319C2.91536 6.44569 3.31154 5.48076 4.1039 4.68839C4.89627 3.89603 5.8612 3.49985 6.9987 3.49985H7.15357L6.53422 4.11906C6.44749 4.20588 6.40472 4.30743 6.40588 4.42371C6.40695 4.53998 6.44973 4.64333 6.53422 4.73375C6.62473 4.82426 6.72871 4.87103 6.84615 4.87404C6.9635 4.87705 7.06743 4.8333 7.15795 4.74279L8.46928 3.42577C8.57477 3.32038 8.62751 3.19739 8.62751 3.05681C8.62751 2.91613 8.57477 2.7931 8.46928 2.68771L7.14672 1.37069C7.06 1.28396 6.95699 1.24114 6.8377 1.24221C6.7184 1.24337 6.6135 1.28921 6.52299 1.37973C6.4385 1.47014 6.39475 1.57257 6.39174 1.687C6.38882 1.80143 6.43257 1.9039 6.52299 1.99442L7.15357 2.62485H6.9987C6.31065 2.62485 5.66602 2.75499 5.0648 3.01525C4.46348 3.27551 3.93921 3.62926 3.49199 4.07648C3.04476 4.5237 2.69102 5.04797 2.43076 5.64929C2.17049 6.25051 2.04036 6.89514 2.04036 7.58319C2.04036 8.27123 2.17049 8.91586 2.43076 9.51708C2.69102 10.1184 3.04476 10.6427 3.49199 11.0899C3.93921 11.5371 4.46348 11.8909 5.0648 12.1511C5.66602 12.4114 6.31065 12.5415 6.9987 12.5415Z" fill="#131313" fill-opacity="0.7"/>
</g>
</svg>
