<svg width="32" height="32" viewBox="0 0 32 32" fill="none" xmlns="http://www.w3.org/2000/svg">
<mask id="mask0_836_121694" style="mask-type:alpha" maskUnits="userSpaceOnUse" x="0" y="0" width="32" height="32">
<rect width="32" height="32" fill="#FFC21C"/>
</mask>
<g mask="url(#mask0_836_121694)">
<path d="M13.5128 28L13.0308 24.1437C12.6052 24.0154 12.145 23.8137 11.6501 23.5383C11.1552 23.2632 10.7343 22.9684 10.3874 22.654L6.83075 24.1667L4.34375 19.8333L7.41808 17.5153C7.37875 17.2744 7.34631 17.0262 7.32075 16.7707C7.29497 16.5151 7.28208 16.2668 7.28208 16.0257C7.28208 15.8017 7.29497 15.5662 7.32075 15.3193C7.34631 15.0722 7.37875 14.794 7.41808 14.4847L4.34375 12.1667L6.83075 7.88467L10.3618 9.37167C10.76 9.04011 11.1908 8.741 11.6541 8.47433C12.1172 8.20767 12.5675 8.00167 13.0051 7.85633L13.5128 4H18.4874L18.9694 7.882C19.4805 8.06156 19.9322 8.26756 20.3244 8.5C20.7166 8.73244 21.1205 9.023 21.5361 9.37167L25.1694 7.88467L27.6564 12.1667L24.4794 14.5617C24.553 14.8368 24.5941 15.0893 24.6028 15.3193C24.6112 15.5491 24.6154 15.776 24.6154 16C24.6154 16.2069 24.6069 16.4252 24.5898 16.655C24.5726 16.885 24.5333 17.1632 24.4718 17.4897L27.5974 19.8333L25.1104 24.1667L21.5361 22.6283C21.1205 22.977 20.7025 23.2761 20.2821 23.5257C19.8616 23.7752 19.4241 23.9727 18.9694 24.118L18.4874 28H13.5128ZM14.6667 26.6667H17.2744L17.7668 23.0563C18.4385 22.8786 19.0432 22.6346 19.5807 22.3243C20.1185 22.0141 20.666 21.5889 21.2231 21.0487L24.5488 22.4667L25.8744 20.2L22.9564 18.0077C23.0675 17.6281 23.1411 17.279 23.1771 16.9603C23.2129 16.6414 23.2308 16.3213 23.2308 16C23.2308 15.6616 23.2129 15.3414 23.1771 15.0397C23.1411 14.7381 23.0675 14.4061 22.9564 14.0437L25.9258 11.8L24.6001 9.53333L21.1974 10.959C20.7941 10.5163 20.2638 10.1013 19.6064 9.714C18.9493 9.32689 18.3275 9.07011 17.7411 8.94367L17.3334 5.33333H14.6744L14.2591 8.918C13.5873 9.06155 12.9698 9.29278 12.4064 9.61167C11.8433 9.93033 11.2831 10.3683 10.7257 10.9257L7.40008 9.53333L6.07442 11.8L8.96675 13.959C8.85564 14.2581 8.77786 14.5829 8.73342 14.9333C8.68897 15.2838 8.66675 15.6479 8.66675 16.0257C8.66675 16.3641 8.68897 16.7 8.73342 17.0333C8.77786 17.3667 8.84708 17.6914 8.94108 18.0077L6.07442 20.2L7.40008 22.4667L10.7001 21.0667C11.2232 21.5949 11.7663 22.0184 12.3294 22.3373C12.8928 22.656 13.5274 22.9042 14.2334 23.082L14.6667 26.6667ZM15.9641 19.3333C16.8941 19.3333 17.6822 19.0102 18.3284 18.364C18.9744 17.718 19.2974 16.93 19.2974 16C19.2974 15.07 18.9744 14.282 18.3284 13.636C17.6822 12.9898 16.8941 12.6667 15.9641 12.6667C15.0292 12.6667 14.2399 12.9898 13.5961 13.636C12.9525 14.282 12.6308 15.07 12.6308 16C12.6308 16.93 12.9525 17.718 13.5961 18.364C14.2399 19.0102 15.0292 19.3333 15.9641 19.3333Z" fill="#131313"/>
</g>
</svg>
