<svg width="42" height="42" viewBox="0 0 42 42" fill="none" xmlns="http://www.w3.org/2000/svg">
<g clip-path="url(#clip0_836_120215)">
<rect x="42" y="1.83588e-06" width="42" height="42" rx="21" transform="rotate(90 42 1.83588e-06)" fill="#A9D1FF"/>
<path d="M12.6009 12.1797L29.4009 12.1797L31.2909 17.8497L29.4009 19.3197L12.6009 19.3197L10.7109 17.6397L12.6009 12.1797Z" fill="white"/>
<path d="M13.2955 30.5205C12.78 30.5205 12.3495 30.3478 12.0042 30.0025C11.6588 29.6571 11.4862 29.2267 11.4862 28.7111L11.4862 19.7211C11.0137 19.3723 10.668 18.9149 10.449 18.3492C10.2301 17.7834 10.2254 17.1796 10.435 16.5378L11.5251 12.9452C11.6744 12.4886 11.9152 12.1303 12.2475 11.8702C12.5799 11.6104 12.991 11.4805 13.4806 11.4805L28.4886 11.4805C28.9782 11.4805 29.3882 11.6022 29.7184 11.8456C30.0488 12.089 30.2908 12.4412 30.4444 12.902L31.5773 16.5378C31.7869 17.1796 31.7823 17.7884 31.5633 18.3643C31.3443 18.9399 30.9986 19.4066 30.5262 19.7643L30.5262 28.7111C30.5262 29.2267 30.3535 29.6571 30.0082 30.0025C29.6628 30.3478 29.2325 30.5205 28.7171 30.5205L13.2955 30.5205ZM23.4702 19.3205C24.1896 19.3205 24.7266 19.1191 25.0813 18.7162C25.436 18.3136 25.5853 17.8976 25.5293 17.4683L24.7839 12.6005L21.5662 12.6005L21.5662 17.3045C21.5662 17.8544 21.7542 18.3279 22.1304 18.7249C22.5067 19.1219 22.9533 19.3205 23.4702 19.3205ZM18.4302 19.3205C19.0318 19.3205 19.5183 19.1219 19.8895 18.7249C20.2606 18.3279 20.4462 17.8544 20.4462 17.3045L20.4462 12.6005L17.2284 12.6005L16.483 17.5542C16.4371 17.9018 16.589 18.2831 16.9386 18.698C17.2882 19.113 17.7854 19.3205 18.4302 19.3205ZM13.4462 19.3205C13.9401 19.3205 14.3597 19.1525 14.705 18.8165C15.0504 18.4805 15.2654 18.0612 15.3502 17.5587L16.0524 12.6005L13.4806 12.6005C13.2364 12.6005 13.0426 12.6543 12.899 12.762C12.7555 12.8697 12.6478 13.0313 12.5759 13.2467L11.5422 16.7831C11.3583 17.3719 11.4369 17.9419 11.7779 18.4934C12.119 19.0448 12.675 19.3205 13.4462 19.3205ZM28.5662 19.3205C29.2367 19.3205 29.7723 19.0591 30.1731 18.5365C30.5737 18.0138 30.6727 17.4294 30.4702 16.7831L29.3804 13.2036C29.3085 12.9882 29.2008 12.8338 29.0573 12.7405C28.9137 12.6471 28.7199 12.6005 28.4757 12.6005L25.9599 12.6005L26.6622 17.5587C26.7469 18.0612 26.962 18.4805 27.3073 18.8165C27.6526 19.1525 28.0723 19.3205 28.5662 19.3205Z" fill="#2879F5"/>
<mask id="mask0_836_120215" style="mask-type:alpha" maskUnits="userSpaceOnUse" x="0" y="0" width="42" height="42">
<rect x="1.83588e-06" y="1.83588e-06" width="42" height="42" fill="#D9D9D9"/>
</mask>
<g mask="url(#mask0_836_120215)">
</g>
</g>
<defs>
<clipPath id="clip0_836_120215">
<rect x="42" y="1.83588e-06" width="42" height="42" rx="21" transform="rotate(90 42 1.83588e-06)" fill="white"/>
</clipPath>
</defs>
</svg>
