<svg width="32" height="32" viewBox="0 0 32 32" fill="none" xmlns="http://www.w3.org/2000/svg">
<mask id="mask0_836_120625" style="mask-type:alpha" maskUnits="userSpaceOnUse" x="0" y="0" width="32" height="32">
<rect width="32" height="32" fill="#D9D9D9"/>
</mask>
<g mask="url(#mask0_836_120625)">
<path d="M8.97451 25.3591L10.7695 20.8974C10.884 20.6428 11.0566 20.4339 11.2875 20.2708C11.5182 20.1074 11.7745 20.0258 12.0565 20.0258H15.3335V13.6078C12.2924 13.548 9.74151 13.1677 7.68084 12.4668C5.62018 11.7659 4.58984 10.9437 4.58984 10.0001C4.58984 8.98477 5.69329 8.12832 7.90018 7.43077C10.1071 6.73343 12.8071 6.38477 16.0002 6.38477C19.1984 6.38477 21.8997 6.73343 24.1042 7.43077C26.3084 8.12832 27.4105 8.98477 27.4105 10.0001C27.4105 10.9608 26.3758 11.7872 24.3065 12.4794C22.2374 13.1719 19.6908 13.548 16.6668 13.6078V20.0258H19.9438C20.2207 20.0258 20.4758 20.1074 20.7092 20.2708C20.9425 20.4339 21.1164 20.6428 21.2308 20.8974L23.0258 25.3591H21.6412L20.0412 21.3591H11.9592L10.3592 25.3591H8.97451ZM16.0002 12.2821C18.3951 12.2821 20.5523 12.059 22.4718 11.6128C24.3916 11.1668 25.5652 10.6292 25.9925 10.0001C25.5652 9.37099 24.3916 8.83343 22.4718 8.38743C20.5523 7.94121 18.3951 7.7181 16.0002 7.7181C13.6053 7.7181 11.4481 7.94121 9.52851 8.38743C7.60873 8.83343 6.43518 9.37099 6.00784 10.0001C6.43518 10.6292 7.60873 11.1668 9.52851 11.6128C11.4481 12.059 13.6053 12.2821 16.0002 12.2821Z" fill="#1C1B1F"/>
</g>
</svg>
