<svg width="32" height="32" viewBox="0 0 32 32" fill="none" xmlns="http://www.w3.org/2000/svg">
<mask id="mask0_836_120631" style="mask-type:alpha" maskUnits="userSpaceOnUse" x="0" y="0" width="32" height="32">
<rect width="32" height="32" fill="#D9D9D9"/>
</mask>
<g mask="url(#mask0_836_120631)">
<path d="M10.4002 24.0007H21.6155L22.3515 14.257H9.65651L10.4002 24.0007ZM9.55918 12.9237H22.4488L22.6515 10.3853L18.8668 6.66732H13.1335L9.34884 10.3853L9.55918 12.9237ZM8.30784 14.1647L3.58984 9.67765L4.45651 8.68265L8.15418 12.2007L7.98484 9.91332L12.5642 5.33398H19.4362L24.0155 9.91332L23.8462 12.2007L27.5438 8.68265L28.4105 9.67765L23.6925 14.1647H8.30784ZM9.16418 25.334L8.30784 14.1647H23.6925L22.8362 25.334H9.16418Z" fill="#131313" fill-opacity="0.6"/>
</g>
</svg>
