<svg width="32" height="32" viewBox="0 0 32 32" fill="none" xmlns="http://www.w3.org/2000/svg">
<mask id="mask0_836_120501" style="mask-type:alpha" maskUnits="userSpaceOnUse" x="0" y="0" width="32" height="32">
<rect width="32" height="32" fill="#D9D9D9"/>
</mask>
<g mask="url(#mask0_836_120501)">
<path d="M8 25.3327C6.89222 25.3327 5.94867 24.9429 5.16933 24.1633C4.38978 23.384 4 22.4405 4 21.3327V10.666C4 9.55824 4.38978 8.61468 5.16933 7.83535C5.94867 7.05579 6.89222 6.66602 8 6.66602H24C25.1078 6.66602 26.0513 7.05579 26.8307 7.83535C27.6102 8.61468 28 9.55824 28 10.666V21.3327C28 22.4405 27.6102 23.384 26.8307 24.1633C26.0513 24.9429 25.1078 25.3327 24 25.3327H8ZM8 11.3327H24C24.5231 11.3327 25.0111 11.4225 25.464 11.602C25.9171 11.7813 26.318 12.0446 26.6667 12.3917V10.666C26.6667 9.93268 26.4056 9.3049 25.8833 8.78268C25.3611 8.26046 24.7333 7.99935 24 7.99935H8C7.26667 7.99935 6.63889 8.26046 6.11667 8.78268C5.59444 9.3049 5.33333 9.93268 5.33333 10.666V12.3917C5.682 12.0446 6.08289 11.7813 6.536 11.602C6.98889 11.4225 7.47689 11.3327 8 11.3327ZM5.37933 14.9737L20.495 18.6507C20.6608 18.6951 20.8308 18.6993 21.005 18.6633C21.1794 18.6276 21.3299 18.5516 21.4563 18.4353L26.423 14.2353C26.2299 13.7651 25.9146 13.386 25.477 13.098C25.0394 12.81 24.5471 12.666 24 12.666H8C7.31956 12.666 6.73278 12.8843 6.23967 13.321C5.74656 13.7579 5.45978 14.3088 5.37933 14.9737Z" fill="#131313" fill-opacity="0.6"/>
</g>
</svg>
